<svg width="512" height="128" viewBox="0 0 512 128" fill="#800000" xmlns="http://www.w3.org/2000/svg">
    <rect id="Background" x="0" y="0" width="512" height="128" fill="#D2691e"/>
    <g id="Grain">
        <path
              d="M 60.988281,40.009766 C 53.704952,39.984986 45.70088,40.253593 38.40625,40.742187 23.844001,41.717566 -0.05664062,43.732422 -0.05664062,43.732422 l 0.11328124,1.095703 c 0,0 23.85998338,-2.012926 38.42187538,-2.988281 14.534881,-0.973546 31.99986,-1.044887 40.601562,0.279297 0.0013,5e-6 -0.4974,0.875005 0.0039,0 12.911753,3.163647 10.275362,1.428832 14.615842,4.918072 5.20064,3.385743 28.04377,8.340103 29.16441,15.437471 0.5513,3.491519 -2.75064,7.774249 -3.38833,8.425117 -4.78478,5.935954 -12.13045,11.740117 -21.50325,17.039652 h -0.002 C 72.314142,102.48653 17.005859,128 17.005859,128 h 2.740235 c 0,0 53.593142,-23.822 79.297908,-38.396409 9.403288,-5.316775 20.123148,-12.877911 22.967088,-15.527079 1.34548,-1.253333 12.43904,-8.668753 12.32318,-12.479881 -0.0627,-2.064102 2.44021,-1.67154 -8.69191,-6.181601 C 114.51024,50.904969 110.1168,49.237522 102.09878,47.428393 90.55632,40.66756 87.942679,42.255526 79.248047,41.03125 h -0.0039 C 74.830915,40.352192 68.26986,40.034543 60.988281,40.009766 Z"/>
        <path fill="none" stroke="#800000" stroke-width="1.3"
              d="m 512.00003,67.4375 c 0,0 -87.42801,-0.984001 -128.00004,-0.4375 -40.57203,0.546501 -109.49754,4.597131 -130.9099,7.974872 -21.41236,3.377741 -67.26926,15.22979 -86.17588,21.232232 -18.90662,6.002446 -54.51274,17.822426 -88.414212,32.200446"/>
        <path
              d="m 0,27.289062 v 0.828125 c 0,0 40.27413,-1.12448 56.935547,0.529297 16.724494,1.660039 37.524274,4.137067 55.450043,6.885376 14.80359,2.269629 22.09649,3.543377 31.50577,6.921237 13.58396,4.87654 17.57517,10.827719 18.38119,15.111243 0.25876,1.375108 -2.52251,6.052441 -4.44731,7.293618 -8.24437,5.316242 -16.6797,9.234471 -37.97394,20.60727 C 109.76427,90.852496 88.123728,102.41117 68.25004,111.2207 48.376352,120.03024 30.121134,128 30.121134,128 h 2.226562 c 0,0 16.542997,-6.77736 36.427735,-15.5918 19.884737,-8.81443 42.241169,-19.050688 52.298829,-24.8457 19.96382,-11.502733 37.90491,-18.465458 44.72072,-22.486098 6.29682,-3.714494 9.11837,-7.114418 10.3149,-9.60401 1.02104,-2.124447 -8.08899,-5.418096 -11.14716,-7.517421 -1.67881,-1.15245 -17.38484,-8.780903 -22.07761,-10.74865 -7.8936,-3.309905 -15.78178,-4.495498 -26.39804,-5.414959 C 101.4485,30.488891 85.692717,28.922322 57.064453,27.353516 40.248416,26.432011 0,27.289062 0,27.289062 Z"/>
        <path fill="none" stroke="#800000" stroke-width="1.5"
              d="m 512.65,77.298557 c 1.45268,-3.014763 -237.0983,3.326128 -264.52501,7.705538 -27.42671,4.37941 -60.80553,11.235935 -86.9326,19.046155 -26.12707,7.81022 -69.192392,25.0073 -69.192392,25.0073"/>
        <path
              d="M 52.292402,46.698261 C 33.422501,47.151711 0,53.095703 0,53.095703 v 1.132813 c 0,0 42.591597,-5.081497 64.379614,-4.417856 7.62962,0.182552 6.52682,1.569378 13.892204,5.118629 8.544176,4.11729 17.326241,4.415478 17.059217,10.093228 -0.322515,6.857664 -11.596485,10.705989 -18.418342,15.734029 -8.267211,6.093336 -12.631961,12.864819 -16.951756,15.261032 -7.884364,4.373502 0.0078,-0.002 0.0078,-0.002 L 0.04100262,123.41597 c -0.37528997,0.17263 -0.54033128,0.61623 -0.36914062,0.99218 0.17190781,0.37715 0.61714714,0.54336 0.99414062,0.3711 0,0 48.56833138,-18.76578 60.45612438,-26.162907 C 73.00992,91.219217 74.240073,87.650303 79.398586,83.536171 90.259426,76.897374 106.38865,68.72064 106.06639,63.919885 105.83784,60.515115 89.809288,58.777308 80.574554,52.571455 71.33982,46.365602 58.582369,46.547111 52.292402,46.698261 Z"/>
        <path
              d="M 18.33751,58.017694 C 7.7625411,58.531922 -0.05664062,59.78125 -0.05664062,59.78125 l 0,1.486136 c 0,0 9.04288042,-0.896028 19.68945262,-1.056449 10.646573,-0.16042 22.632377,-0.0554 27.648438,0.914063 5.168901,0.999006 6.835133,0.643728 8.824298,1.234299 1.989164,0.590572 4.277218,1.98158 4.937421,3.988357 0.651183,3.241412 -3.696094,2.705106 -5.414985,5.285967 -2.398962,3.601967 -0.326034,7.571048 -9.192858,14.122466 -9.776608,6.194176 -8.415723,5.36958 -14.513558,11.336778 -2.571196,2.516113 -3.924747,4.445943 -11.030945,11.239163 -5.111641,3.81856 -12.9866553,5.51803 -20.99023437,7.14258 -0.27083137,0.0549 -0.44578325,0.31906 -0.39062501,0.58984 0.0548855,0.27084 0.31906442,0.44579 0.58984375,0.39063 8.02028103,-1.62794 16.02530863,-3.30028 21.41406463,-7.33789 0.01568,-0.0115 0.03068,-0.0239 0.04492,-0.0371 7.16668,-7.24586 9.332128,-9.123323 12.082567,-11.322422 2.782371,-2.22463 5.137029,-5.688669 15.345932,-10.557598 5.162843,-3.859974 6.980201,-7.873192 9.538332,-13.802882 5.137803,-3.443238 17.670924,-7.111998 17.400871,-9.630664 -0.279868,-2.6102 -11.730613,-5.761216 -16.222986,-7.094975 -2.160862,-0.641559 -7.937199,-1.149158 -13.381653,-0.727417 -5.369707,0.41595 -17.332165,1.55559 -27.984145,2.073562 z"/>
        <path
              d="m 9.4707031,70.082031 c -1.5961846,-0.01255 -3.1920816,0.09903 -4.6171875,0.25 C 2.003304,70.633975 0,71.050226 0,71.050226 v 1.033758 c 0,0 2.162283,-0.459791 4.9570312,-0.755859 2.7947483,-0.296068 6.2689708,-0.416137 8.8906248,0.222656 2.762539,0.673121 6.782472,1.385923 10.197266,2.763672 3.414793,1.377749 6.131109,3.356405 6.572265,6.541016 0.385158,2.780361 -3.82873,4.533253 -7.990234,7.134765 -3.533679,2.209038 -8.389335,10.70987 -11.097656,13.093746 C 6.3157592,105.67297 0,107.90234 0,107.90234 v 0.83792 c 0,0 8.1628703,-2.94178 13.376953,-7.53125 2.505488,-2.205341 6.874875,-9.945062 10.716797,-11.808589 5.577122,-2.705187 14.458149,-13.027757 14.263672,-14.431641 -0.509927,-3.681044 -8.071889,-2.897687 -11.814453,-3.582031 -3.742564,-0.684343 -9.182338,-1.284734 -11.958985,-1.433594 -1.796238,-0.0963 -3.517096,0.141459 -5.1132809,0.128906 z"/>
        <path
              d="M 22.580078,9.1640625 C 9.7719648,9.1929168 -0.015625,9.5 -0.015625,9.5 l 0.03125,1 c 0,0 39.161592,-1.2242872 63.1875,0.998047 24.034321,2.223112 81.214845,11.746094 81.214845,11.746094 0.0414,4.56e-4 29.67763,5.039615 56.76977,10.90039 7.03566,1.522007 14.48016,2.401752 19.12109,3.066406 1.72056,0.246411 7.07329,1.834321 7.15625,2.542969 -0.0833,0.814275 -3.26061,1.806348 -5.96484,2.701172 -2.8229,0.934093 -7.31915,1.159196 -10.33594,2.070313 -3.01679,0.911117 -5.48153,2.181765 -8.69726,2.648437 -1.3738,0.199368 -8.67399,3.648842 -8.49613,4.990234 1.25248,0.944709 7.42959,2.629541 8.78125,2.634766 4.23898,0.01639 7.53517,0.37421 9.6875,0.55273 4.30467,0.357049 9.52939,-1.131484 14.90625,-0.955078 5.37686,0.176407 10.65764,0.39311 14.52735,0.902344 1.93485,0.254617 3.51961,0.588971 4.55078,0.998047 0.51558,0.204538 0.88858,0.430218 1.09375,0.632812 0.20516,0.202595 0.25195,0.337913 0.23437,0.523438 -0.003,0.02989 -0.003,0.05995 0,0.08984 6.8e-4,0.008 -0.009,0.101228 -0.14453,0.273437 -0.13574,0.172209 -0.38036,0.398472 -0.72265,0.648438 -0.6846,0.49993 -1.75275,1.099587 -3.13868,1.761718 -2.77185,1.324264 -6.81745,2.912223 -11.75195,4.669922 -9.869,3.515399 -23.57024,7.317354 -37.66361,11.537799 -28.18672,8.440891 -58.67017,17.004687 -68.94259,20.362555 -20.57345,6.72509 -67.862549,30.7559 -67.862549,30.7559 -0.247246,0.12385 -0.347005,0.42488 -0.222657,0.67188 0.123853,0.24724 0.424878,0.347 0.671875,0.22266 0,0 47.559441,-23.38849 67.902611,-30.03831 10.18589,-3.329582 40.80234,-12.172697 69.00364,-20.617952 14.10065,-4.222628 27.63549,-7.718823 37.53761,-11.246018 5.72514,-1.735349 13.12774,-3.028755 18.28231,-6.210901 4.32052,-3.155073 3.24444,-2.306247 3.20041,-3.537298 -2.53698,-2.010763 -7.75925,-2.315517 -11.85309,-2.75337 -3.96084,-0.423628 -9.4196,-0.691335 -14.80177,-0.867916 -5.38217,-0.176581 -10.80389,0.211139 -14.97485,-0.445044 -3.15531,-0.496398 -6.48814,-1.777123 -6.47174,-2.490732 0.0204,-0.887136 4.93531,-2.75695 7.3332,-3.495291 3.00005,-0.906061 5.27657,-1.403687 10.09562,-2.412071 2.87223,-0.601012 6.37814,-3.291216 7.29083,-4.333831 2.07821,-2.374053 -4.03449,-3.015023 -6.02872,-3.580421 -3.42603,-0.971336 -10.65647,-2.643761 -17.70921,-4.169461 C 192.67619,29.197256 173.24443,26.300311 144.92593,22.123272 143.37355,21.758296 88.409006,12.824723 63.297225,10.501949 51.217663,9.3846574 35.388191,9.1352082 22.580078,9.1640625 Z"/>
        <path
              d="m 446.82422,-0.49609375 c 0,0 -130.85545,17.83080375 -188.31836,17.17382775 -57.48565,-0.657236 -155.17969,-17.1699215 -155.17969,-17.1699215 -0.27182,-0.0485262 -0.53153,0.13247697 -0.58008,0.40429688 -0.0485,0.27182525 0.13248,0.53152552 0.4043,0.58007812 0,0 101.42368,19.7762025 159.09375,20.4355465 57.69282,0.659605 184.71484,-20.43164025 184.71484,-20.43164025 0.27422,-0.0373467 0.46595,-0.29034786 0.42774,-0.56445312 -0.0374,-0.2733498 -0.2891,-0.4647649 -0.5625,-0.42773438 z"/>
        <path
              d="m 512,8.3417969 c 0,0 -88.35204,7.8626201 -125.64844,12.3789061 -29.52678,3.575449 -53.2286,8.267184 -70.07925,16.010256 -15.48695,7.116442 -22.76588,0.875754 -26.1435,7.589353 0,0 -2.69396,5.603972 22.46828,8.29076 5.12633,0.547382 16.01732,-1.073152 22.83836,0.695569 5.99053,1.553367 176.55078,5.175781 176.55078,5.175781 l 0.0138,-1 c 0,0 -160.0183,-8.020201 -168.72974,-10.769147 -2.18766,-0.771603 -11.25404,-3.879369 -11.73806,-5.545282 -0.57633,-1.983653 6.85025,-3.299747 7.79198,-4.13479 4.17731,-0.808372 9.95224,-6.015801 45.77719,-11.967415 C 422.01533,18.933265 512,9.3535156 512,9.3535156 Z"/>
        <path
              d="m 512,17.871477 c 0,0 -13.64038,1.992853 -27.71683,5.329619 -7.03823,1.668383 -13.46689,2.480951 -19.04876,4.088275 -2.79094,0.803662 -10.05332,2.181423 -12.57627,2.597695 -3.27317,0.540051 -21.45733,3.881354 -21.1452,7.969783 0.8894,6.169038 27.70728,8.729001 32.57143,9.493447 5.4864,0.842544 13.22958,1.033648 20.17585,1.857347 13.89254,1.647396 27.73981,1.894533 27.73981,1.894533 V 50.03845 c 0,0 -13.47693,-1.326071 -27.35745,-2.972044 -6.94026,-0.822986 -13.99987,-2.033792 -19.46485,-2.873047 -8.75595,-1.344647 -13.22021,-1.784493 -14.03116,-5.944852 -0.37734,-4.942521 6.60427,-5.43485 14.44913,-7.69382 5.55334,-1.599106 12.24346,-4.0074 19.27344,-5.673828 C 498.9291,21.548004 512,18.847312 512,18.847312 Z"/>
        <path
              d="m 512.00003,29.875261 c 0,0 -10.46756,1.770866 -12.07555,4.501311 -1.60799,2.730445 -1.52401,3.340265 0.35356,5.631619 1.87757,2.291354 11.72199,3.74404 11.72199,3.74404 L 512,40.340828 c 0,0 -1.67142,-0.625966 -3.26446,-1.392169 -1.02614,-0.49354 -2.22662,-0.786691 -2.23768,-1.869748 -0.0117,-1.14011 1.60716,-1.161982 2.70857,-1.521155 1.5692,-0.511726 2.7936,-1.07093 2.7936,-1.07093 z"/>
    </g>
    <!-- Kronika, 37.3px -->
    <g id="ObraText">
        <path id="O"
              d="m 428.74403,105.66267 q 0,5.29754 -2.76867,9.87568 -4.27293,7.01981 -12.97138,7.15059 -7.12882,0.10896 -12.70978,-3.53169 -5.97337,-3.88051 -7.04159,-10.18089 -0.28341,-1.72226 -0.28341,-3.3573 0,-5.47196 3.13929,-10.224498 4.59993,-6.954401 13.32018,-7.085206 16.69929,-0.239807 19.01015,13.734424 0.30521,1.89662 0.30521,3.61889 z m -6.86719,-0.71944 q 0,-1.37343 -0.23981,-2.81227 -0.78484,-4.708939 -3.72791,-6.49659 -2.44168,-1.504246 -7.52121,-1.417042 -5.34116,0.08721 -8.37145,4.839742 -2.15826,3.3791 -2.15826,7.30321 0,1.19903 0.21802,2.50707 0.6322,3.92411 4.40371,6.08238 3.27011,1.89665 7.54301,1.83124 5.25396,-0.0655 8.00083,-4.81792 1.85307,-3.18291 1.85307,-7.01982 z"/>
        <path id="bra"
              d="M 434.01172 90.068359 C 433.10026 90.068359 432.37109 90.456598 431.82422 91.234375 C 431.33811 91.927082 431.0957 92.747397 431.0957 93.695312 L 430.96875 117.0293 C 430.96875 117.72201 431.24219 118.28711 431.78906 118.72461 C 432.28733 119.12565 432.88889 119.32617 433.59375 119.32617 C 434.05555 119.32617 434.47482 119.04535 434.85156 118.48633 C 435.19181 117.98806 435.3741 117.49587 435.39844 117.00977 C 435.76302 117.75108 436.5395 118.37087 437.73047 118.86914 C 438.78776 119.31879 439.79037 119.54492 440.73828 119.54492 C 443.82508 119.54492 446.42101 118.63347 448.52344 116.81055 C 450.72309 114.89042 451.82227 112.41124 451.82227 109.37305 C 451.82227 106.35916 450.85612 103.90907 448.92383 102.02539 C 446.99154 100.12956 444.51779 99.181641 441.50391 99.181641 C 439.82683 99.181641 437.99848 99.681206 436.01758 100.67773 L 436.01758 93.695312 C 436.01758 93.513021 436.03035 93.239583 436.05469 92.875 C 436.09115 92.498265 436.10938 92.219401 436.10938 92.037109 C 436.10937 90.724612 435.40928 90.068359 434.01172 90.068359 z M 488.95508 98.015625 C 487.80057 98.015625 487.12609 98.872399 486.93164 100.58594 C 484.9629 99.601564 483.14539 99.109375 481.48047 99.109375 C 478.45443 99.109375 475.97526 100.05729 474.04297 101.95312 C 472.11068 103.8368 471.14453 106.28494 471.14453 109.29883 C 471.14453 112.33702 472.25109 114.81619 474.46289 116.73633 C 476.56532 118.55924 479.15387 119.4707 482.22852 119.4707 C 483.16427 119.4707 484.17969 119.23373 485.27344 118.75977 C 486.46441 118.2372 487.23004 117.63021 487.57031 116.9375 C 487.59462 117.42361 487.77691 117.9158 488.11719 118.41406 C 488.49392 118.97309 488.91319 119.25195 489.375 119.25195 C 490.07986 119.25195 490.68685 119.05143 491.19727 118.65039 C 491.74413 118.20074 492.01213 117.63563 492 116.95508 L 491.89062 101.64258 C 491.87847 100.68251 491.62868 99.862196 491.14258 99.181641 C 490.5957 98.403864 489.86653 98.015625 488.95508 98.015625 z M 467.28125 99.564453 C 465.53125 99.564453 463.87239 99.827042 462.30469 100.34961 C 460.3724 100.99371 459.22396 101.88694 458.85938 103.0293 C 458.44618 100.93902 457.74609 99.892578 456.76172 99.892578 C 454.95095 99.892578 454.04688 101.15777 454.04688 103.68555 C 454.04687 103.89214 454.05232 104.19466 454.06445 104.5957 C 454.07659 104.9846 454.08203 105.28364 454.08203 105.49023 L 454.08203 117.59375 C 454.08203 118.33507 454.32639 118.9184 454.8125 119.34375 C 455.29861 119.78125 455.91102 120 456.65234 120 C 457.43012 120 458.07552 119.79405 458.58594 119.38086 C 459.14496 118.94336 459.42383 118.34722 459.42383 117.59375 C 459.42383 116.94965 459.38737 115.9835 459.31445 114.69531 C 459.25365 113.39497 459.22266 112.42339 459.22266 111.7793 C 459.22266 109.57965 459.60547 107.93901 460.37109 106.85742 C 461.34331 105.45986 463.12978 104.57205 465.73047 104.19531 C 466.47179 104.45052 467.12804 104.57812 467.69922 104.57812 C 469.15755 104.57812 469.88672 103.89821 469.88672 102.53711 C 469.88672 101.75933 469.64974 101.07747 469.17578 100.49414 C 468.66537 99.874353 468.03472 99.564453 467.28125 99.564453 z M 481.48047 103.77539 C 482.85373 103.77539 484.67665 104.50456 486.94922 105.96289 L 486.94922 112.07031 C 486.69401 112.73871 486.01953 113.37131 484.92578 113.9668 C 483.90496 114.51367 483.00629 114.78711 482.22852 114.78711 C 480.55144 114.78711 479.17144 114.29492 478.08984 113.31055 C 476.95964 112.30187 476.39453 110.96376 476.39453 109.29883 C 476.39453 107.71897 476.83941 106.41926 477.72656 105.39844 C 478.66232 104.31684 479.91276 103.77539 481.48047 103.77539 z M 441.50391 103.84961 C 443.05946 103.84961 444.30643 104.38911 445.24219 105.4707 C 446.12934 106.49154 446.57227 107.79319 446.57227 109.37305 C 446.57227 111.03797 446.00716 112.37413 444.87695 113.38281 C 443.79536 114.36719 442.41537 114.85938 440.73828 114.85938 C 439.96051 114.85937 439.06185 114.58594 438.04102 114.03906 C 436.95942 113.44358 436.28494 112.81098 436.01758 112.14258 L 436.01758 106.03711 C 438.29014 104.57878 440.11849 103.84961 441.50391 103.84961 z"/>
    </g>
</svg>
